# xmcd
#
# Track frame offsets: 
#        183
#        12785
#        26913
#        38413
#        49438
#        61820
#        72928
#        85258
#        96500
#        107098
#        118220
#        127463
#        138765
#        154300
#        166925
#        176663
#        190695
#        204565
#
# Disc length: 2917 seconds
#
# Revision: 3
# Processed by: cddbd v1.5.2PL0 Copyright (c) Steve Scherf et al.
# Submitted via: ExactAudioCopyFreeDBPlugin 1.0
#
DISCID=020b6312
DTITLE=Bo Diddley - Jungle Sound
DYEAR=1900
DGENRE=Blues
TTITLE0=The Story Of Bo Diddley
TTITLE1=Down Home Special
TTITLE2=Little Girl
TTITLE3=Bo Diddley
TTITLE4=You Don't Love Me
TTITLE5=Diddy Wah Diddy
TTITLE6=Pretty Thing
TTITLE7=Bring It To Jerome
TTITLE8=Dancing Girl
TTITLE9=Who Do You Love?
TTITLE10=Crackin' Up
TTITLE11=I Am Looking For A Woman
TTITLE12=Cops and Robbers
TTITLE13=Nursery Rhyme
TTITLE14=Hey! Bo Diddley
TTITLE15=You Can't Judge A Book By The Cover
TTITLE16=Before You Accuse Me
TTITLE17=Say Man
EXTD=
EXTT0=
EXTT1=
EXTT2=
EXTT3=
EXTT4=
EXTT5=
EXTT6=
EXTT7=
EXTT8=
EXTT9=
EXTT10=
EXTT11=
EXTT12=
EXTT13=
EXTT14=
EXTT15=
EXTT16=
EXTT17=
PLAYORDER=
